# xmcd CD database file
#
# Track frame offsets:
#	150
#	18965
#	37090
#	58075
#	77097
#	94100
#	111047
#	127785
#	147280
#
# Disc length: 2236 seconds
#
# Revision: 0
# Processed by: cddbd v1.5PL3 Copyright (c) Steve Scherf et al.
# Submitted via: CDex 1.51
#
DISCID=6f08ba09
DTITLE=La Artilleria - La Gaviota
DYEAR=1900
DGENRE=Merengue
TTITLE0=La Gaiota
TTITLE1=Me Estoy Volviendo Loco
TTITLE2=Necesito Amor
TTITLE3=La Masajista
TTITLE4=La Vieja and Su Pipa "Judith"
TTITLE5=La Historia De Mi Vida
TTITLE6=Tu No Comprendes
TTITLE7=Movilizate
TTITLE8=Si Te vAs
EXTD=
EXTT0=
EXTT1=
EXTT2=
EXTT3=
EXTT4=
EXTT5=
EXTT6=
EXTT7=
EXTT8=
PLAYORDER=
